# xmcd
#
# Track frame offsets:
#  150
#  11408
#  21598
#  31318
#  42309
#  59680
#  71954
#  91675
#  115146
#  128641
#  139759
#  148847
#  165619
#  176908
#  188029
#  198392
#
# Disc length: 2767 seconds
#
# Revision: 1
# Processed by: cddbd v1.5.2PL0 Copyright (c) Steve Scherf et al.
# Submitted via: Collectorz.com_Music_Collector 6.11
#
DISCID=ea0acd10
DTITLE=Eric Clapton - Eric Clapton and Friends (2CDs) [CD2)
DYEAR=1995
DGENRE=Blues
TTITLE0=For Your Love
TTITLE1=I Wish You Would
TTITLE2=Tribute To Elmore
TTITLE3=Miles Road
TTITLE4=Little Red Rooster
TTITLE5=Highway 49
TTITLE6=Wang-Dang-Doodle
TTITLE7=23 Hours Too Long
TTITLE8=Out On The Water Coast
TTITLE9=Boom Boom
TTITLE10=I Ain't Got You
TTITLE11=Too Much Monkey Business
TTITLE12=Got Love If You Want It
TTITLE13=Think It Over
TTITLE14=Down The Line
TTITLE15=The Boll Weevil Song
EXTD=
EXTT0=
EXTT1=
EXTT2=
EXTT3=
EXTT4=
EXTT5=
EXTT6=
EXTT7=
EXTT8=
EXTT9=
EXTT10=
EXTT11=
EXTT12=
EXTT13=
EXTT14=
EXTT15=
PLAYORDER=
